<svg id="Layer_1" data-name="Layer 1" xmlns="http://www.w3.org/2000/svg" viewBox="0 0 647.79 155.27"><defs><style>.cls-1{fill:#4d4e4e;}.cls-2{fill:#f79420;}.cls-3{fill:#00aeef;}</style></defs><title>JC_logo</title><path class="cls-1" d="M57.48,141.78v2.58H53.94v11a3.18,3.18,0,0,0,.09.82.85.85,0,0,0,.33.48,1.43,1.43,0,0,0,.67.22,9.61,9.61,0,0,0,1.12.05h1.34v2.58H55.24a10.48,10.48,0,0,1-1.94-.15,2.84,2.84,0,0,1-1.31-.57,2.42,2.42,0,0,1-.74-1.17,6.75,6.75,0,0,1-.24-2v-11.3H48v-2.58h3v-5.33h2.92v5.33Z" transform="translate(-11.5 -11.03)"/><path class="cls-1" d="M70.5,135v9.38h.07a3.88,3.88,0,0,1,1-1.39,5.47,5.47,0,0,1,1.39-.93,7.18,7.18,0,0,1,1.61-.53,8.14,8.14,0,0,1,1.63-.17,7.71,7.71,0,0,1,2.92.48A4.81,4.81,0,0,1,81,143.19a5,5,0,0,1,1,2,11,11,0,0,1,.29,2.63v11.68H79.36v-12a3.53,3.53,0,0,0-1-2.61,3.58,3.58,0,0,0-2.65-1,6,6,0,0,0-2.32.41,4.35,4.35,0,0,0-1.63,1.17,5,5,0,0,0-1,1.77,7.17,7.17,0,0,0-.33,2.22v10H67.58V135Z" transform="translate(-11.5 -11.03)"/><path class="cls-1" d="M106.12,158.41a8.06,8.06,0,0,1-5,1.51,9.13,9.13,0,0,1-3.69-.69,7.27,7.27,0,0,1-2.63-1.92,8.16,8.16,0,0,1-1.6-3,14.23,14.23,0,0,1-.6-3.74,10.69,10.69,0,0,1,.62-3.71A8.87,8.87,0,0,1,94.94,144a7.87,7.87,0,0,1,2.65-1.92,8.08,8.08,0,0,1,3.35-.69,7.29,7.29,0,0,1,3.93,1,7.79,7.79,0,0,1,2.51,2.49,9.86,9.86,0,0,1,1.31,3.3,14.16,14.16,0,0,1,.29,3.4H95.68a7.06,7.06,0,0,0,.28,2.22,5,5,0,0,0,1,1.86,4.91,4.91,0,0,0,1.75,1.29,6,6,0,0,0,2.51.48,5.05,5.05,0,0,0,3-.86,4.15,4.15,0,0,0,1.56-2.61h2.89A7.1,7.1,0,0,1,106.12,158.41Zm-.7-11.41a5,5,0,0,0-1.06-1.6,5.08,5.08,0,0,0-1.58-1.06,5,5,0,0,0-2-.39,5.1,5.1,0,0,0-2,.39,4.72,4.72,0,0,0-1.56,1.08,5.18,5.18,0,0,0-1,1.6,6.06,6.06,0,0,0-.45,1.94h10.2A6,6,0,0,0,105.42,147Z" transform="translate(-11.5 -11.03)"/><path class="cls-1" d="M133.5,144.35v-2.58h3v-2.65a4.16,4.16,0,0,1,1.25-3.28,5.34,5.34,0,0,1,3.66-1.12,7.51,7.51,0,0,1,.95.07,5.05,5.05,0,0,1,.95.21v2.54a3.64,3.64,0,0,0-.82-.19,7.13,7.13,0,0,0-.82-.05,2.83,2.83,0,0,0-1.65.41,1.82,1.82,0,0,0-.58,1.58v2.47h3.44v2.58h-3.44v15.19h-2.92V144.35Z" transform="translate(-11.5 -11.03)"/><path class="cls-1" d="M155,141.78v3.74H155a7.9,7.9,0,0,1,2.61-3.19,6.56,6.56,0,0,1,3.92-1v3.09a8.27,8.27,0,0,0-3,.48,4.71,4.71,0,0,0-2,1.41,5.82,5.82,0,0,0-1.1,2.25,12.13,12.13,0,0,0-.34,3v7.9h-2.92V141.78Z" transform="translate(-11.5 -11.03)"/><path class="cls-1" d="M182.6,158.41a8.06,8.06,0,0,1-5,1.51,9.13,9.13,0,0,1-3.69-.69,7.27,7.27,0,0,1-2.63-1.92,8.16,8.16,0,0,1-1.6-3,14.23,14.23,0,0,1-.6-3.74,10.69,10.69,0,0,1,.62-3.71,8.87,8.87,0,0,1,1.73-2.92,7.87,7.87,0,0,1,2.65-1.92,8.08,8.08,0,0,1,3.35-.69,7.29,7.29,0,0,1,3.93,1,7.79,7.79,0,0,1,2.51,2.49,9.86,9.86,0,0,1,1.31,3.3,14.16,14.16,0,0,1,.29,3.4h-13.3a7.06,7.06,0,0,0,.28,2.22,5,5,0,0,0,1,1.86,4.91,4.91,0,0,0,1.75,1.29,6,6,0,0,0,2.51.48,5.05,5.05,0,0,0,3-.86,4.15,4.15,0,0,0,1.56-2.61h2.89A7.1,7.1,0,0,1,182.6,158.41ZM181.9,147a5,5,0,0,0-1.06-1.6,5.08,5.08,0,0,0-1.58-1.06,5,5,0,0,0-2-.39,5.1,5.1,0,0,0-2,.39,4.72,4.72,0,0,0-1.56,1.08,5.18,5.18,0,0,0-1,1.6,6.06,6.06,0,0,0-.45,1.94h10.2A6,6,0,0,0,181.9,147Z" transform="translate(-11.5 -11.03)"/><path class="cls-1" d="M197.58,155.57a3.11,3.11,0,0,0,1.08,1.06,4.86,4.86,0,0,0,1.51.57,8.63,8.63,0,0,0,1.73.17,10.66,10.66,0,0,0,1.44-.1,5.26,5.26,0,0,0,1.39-.38,2.61,2.61,0,0,0,1-.81,2.16,2.16,0,0,0,.41-1.36,2,2,0,0,0-.86-1.72,7.3,7.3,0,0,0-2.15-.95q-1.29-.36-2.8-.65a14.45,14.45,0,0,1-2.8-.82,5.79,5.79,0,0,1-2.15-1.49,3.88,3.88,0,0,1-.86-2.68,4.25,4.25,0,0,1,.6-2.3,4.92,4.92,0,0,1,1.55-1.56,7.09,7.09,0,0,1,2.13-.89,9.82,9.82,0,0,1,2.35-.29,14.07,14.07,0,0,1,2.78.26,6.44,6.44,0,0,1,2.25.89,4.63,4.63,0,0,1,1.56,1.72,6.53,6.53,0,0,1,.69,2.7h-2.92a3,3,0,0,0-.45-1.43,2.94,2.94,0,0,0-1-.91,4.38,4.38,0,0,0-1.29-.5,6.63,6.63,0,0,0-1.43-.15,8.67,8.67,0,0,0-1.32.1,4.45,4.45,0,0,0-1.22.36,2.46,2.46,0,0,0-.89.69,1.73,1.73,0,0,0-.34,1.12,1.64,1.64,0,0,0,.53,1.25,4.25,4.25,0,0,0,1.36.82,11.9,11.9,0,0,0,1.86.55l2.06.46a22.14,22.14,0,0,1,2.15.58,7,7,0,0,1,1.86.91,4.46,4.46,0,0,1,1.31,1.43,4.19,4.19,0,0,1,.5,2.13,4.94,4.94,0,0,1-.67,2.68,5.23,5.23,0,0,1-1.75,1.72,7.33,7.33,0,0,1-2.44.91,14.46,14.46,0,0,1-2.7.26,12.5,12.5,0,0,1-2.82-.31,6.89,6.89,0,0,1-2.37-1,5.16,5.16,0,0,1-1.65-1.85,6.43,6.43,0,0,1-.69-2.8h2.92A3.29,3.29,0,0,0,197.58,155.57Z" transform="translate(-11.5 -11.03)"/><path class="cls-1" d="M222.32,135v9.38h.07a3.88,3.88,0,0,1,1-1.39,5.47,5.47,0,0,1,1.39-.93,7.18,7.18,0,0,1,1.61-.53,8.14,8.14,0,0,1,1.63-.17,7.71,7.71,0,0,1,2.92.48,4.81,4.81,0,0,1,1.89,1.34,5,5,0,0,1,1,2,11,11,0,0,1,.29,2.63v11.68h-2.92v-12a3.53,3.53,0,0,0-1-2.61,3.58,3.58,0,0,0-2.65-1,6,6,0,0,0-2.32.41,4.35,4.35,0,0,0-1.63,1.17,5,5,0,0,0-1,1.77,7.17,7.17,0,0,0-.33,2.22v10H219.4V135Z" transform="translate(-11.5 -11.03)"/><path class="cls-1" d="M263.73,165.23a4.36,4.36,0,0,1-3.11,1.08,7.54,7.54,0,0,1-1.48-.14v-2.51l.29.05.26,0h.62a1.44,1.44,0,0,0,1.31-.53,3.77,3.77,0,0,0,.34-1.91V141.78h2.92v20A4.55,4.55,0,0,1,263.73,165.23ZM262,138.58V135h2.92v3.57Z" transform="translate(-11.5 -11.03)"/><path class="cls-1" d="M275.88,147a8.28,8.28,0,0,1,1.65-3,7.76,7.76,0,0,1,2.71-2,9.94,9.94,0,0,1,7.44,0,7.82,7.82,0,0,1,2.7,2,8.31,8.31,0,0,1,1.65,3,11.85,11.85,0,0,1,.55,3.66,11.68,11.68,0,0,1-.55,3.64,8.34,8.34,0,0,1-1.65,2.94,7.62,7.62,0,0,1-2.7,2,10.16,10.16,0,0,1-7.44,0,7.56,7.56,0,0,1-2.71-2,8.3,8.3,0,0,1-1.65-2.94,11.66,11.66,0,0,1-.55-3.64A11.83,11.83,0,0,1,275.88,147Zm3,6.53a6,6,0,0,0,1.19,2.1,5.12,5.12,0,0,0,1.77,1.29,5.39,5.39,0,0,0,4.29,0,5.14,5.14,0,0,0,1.77-1.29,6,6,0,0,0,1.18-2.1,9.79,9.79,0,0,0,0-5.74,6.2,6.2,0,0,0-1.18-2.11,5.06,5.06,0,0,0-1.77-1.31,5.39,5.39,0,0,0-4.29,0,5,5,0,0,0-1.77,1.31,6.18,6.18,0,0,0-1.19,2.11,9.79,9.79,0,0,0,0,5.74Z" transform="translate(-11.5 -11.03)"/><path class="cls-1" d="M305.9,135v9.17H306a4.38,4.38,0,0,1,2.27-2.15,8.47,8.47,0,0,1,3.4-.67,8,8,0,0,1,3.59.76,7.3,7.3,0,0,1,2.54,2,9.05,9.05,0,0,1,1.53,3,12.13,12.13,0,0,1,.52,3.57,12.57,12.57,0,0,1-.5,3.57,8.42,8.42,0,0,1-1.51,2.94,7.14,7.14,0,0,1-2.54,2,8.25,8.25,0,0,1-3.56.72,8.8,8.8,0,0,1-1.46-.14,8.12,8.12,0,0,1-1.6-.45,6.2,6.2,0,0,1-1.49-.84,4.67,4.67,0,0,1-1.19-1.32h-.07v2.37H303V135Zm10.5,13.07a6.53,6.53,0,0,0-1-2.11,4.89,4.89,0,0,0-1.72-1.48,5.23,5.23,0,0,0-2.46-.55,4.82,4.82,0,0,0-4.19,2.11,6.39,6.39,0,0,0-.95,2.15,10.4,10.4,0,0,0,0,5,6.27,6.27,0,0,0,1,2.15,5,5,0,0,0,1.73,1.49,5.42,5.42,0,0,0,2.58.57,5,5,0,0,0,2.53-.58,4.69,4.69,0,0,0,1.63-1.55,6.75,6.75,0,0,0,.89-2.2,11.7,11.7,0,0,0,.27-2.54A9.08,9.08,0,0,0,316.4,148.08Z" transform="translate(-11.5 -11.03)"/><path class="cls-1" d="M349.3,141.78v2.61h.07a6.92,6.92,0,0,1,8.73-2.34,3.85,3.85,0,0,1,1.89,2.34,6.2,6.2,0,0,1,2.35-2.23,6.64,6.64,0,0,1,3.21-.79,9.3,9.3,0,0,1,2.42.29,5,5,0,0,1,1.86.91,4.12,4.12,0,0,1,1.2,1.6,5.84,5.84,0,0,1,.43,2.35v13h-2.92V147.89a8.27,8.27,0,0,0-.14-1.55,3.17,3.17,0,0,0-.52-1.25,2.58,2.58,0,0,0-1-.84,4.16,4.16,0,0,0-1.73-.31,4.6,4.6,0,0,0-3.4,1.24,4.46,4.46,0,0,0-1.24,3.3v11.06h-2.92V147.89a7.54,7.54,0,0,0-.15-1.58,3.37,3.37,0,0,0-.53-1.25,2.5,2.5,0,0,0-1-.82,3.94,3.94,0,0,0-1.63-.29,4.36,4.36,0,0,0-2.18.52,4.94,4.94,0,0,0-2.3,2.73,4.25,4.25,0,0,0-.26,1.29v11.06h-2.92V141.78Z" transform="translate(-11.5 -11.03)"/><path class="cls-1" d="M398.46,159.47a4.14,4.14,0,0,1-2.1.45,2.51,2.51,0,0,1-1.8-.64,2.76,2.76,0,0,1-.67-2.08,7,7,0,0,1-2.8,2.08,9.67,9.67,0,0,1-5.74.36,5.3,5.3,0,0,1-1.87-.86,4.12,4.12,0,0,1-1.25-1.53,5.15,5.15,0,0,1-.46-2.29,5.21,5.21,0,0,1,.52-2.47,4.5,4.5,0,0,1,1.36-1.56,6.23,6.23,0,0,1,1.92-.91q1.08-.31,2.22-.52t2.29-.36a12.67,12.67,0,0,0,1.91-.34,3.17,3.17,0,0,0,1.31-.65,1.59,1.59,0,0,0,.48-1.25,2.91,2.91,0,0,0-.36-1.55,2.46,2.46,0,0,0-.93-.89,3.77,3.77,0,0,0-1.27-.41,9.58,9.58,0,0,0-1.39-.1,6.17,6.17,0,0,0-3.09.7,3,3,0,0,0-1.34,2.66h-2.92a6.33,6.33,0,0,1,.69-2.78,5.22,5.22,0,0,1,1.65-1.84,6.94,6.94,0,0,1,2.35-1,12.43,12.43,0,0,1,2.84-.31,16.59,16.59,0,0,1,2.39.17,6.24,6.24,0,0,1,2.15.7,4.11,4.11,0,0,1,1.55,1.49,4.77,4.77,0,0,1,.58,2.5v9.12a6.82,6.82,0,0,0,.12,1.51c.08.32.35.48.81.48a3.55,3.55,0,0,0,.89-.14Zm-4.74-9.1a3.65,3.65,0,0,1-1.44.6q-.89.19-1.87.31t-2,.27a7.31,7.31,0,0,0-1.79.5,3.23,3.23,0,0,0-1.29,1,2.72,2.72,0,0,0-.5,1.73,2.36,2.36,0,0,0,.29,1.21,2.43,2.43,0,0,0,.75.8,3.2,3.2,0,0,0,1.08.44,6,6,0,0,0,1.31.14,7,7,0,0,0,2.47-.39,5.2,5.2,0,0,0,1.68-1,3.91,3.91,0,0,0,1-1.3,3.27,3.27,0,0,0,.31-1.32Z" transform="translate(-11.5 -11.03)"/><path class="cls-1" d="M410.69,141.78v3.74h.07a7.91,7.91,0,0,1,2.61-3.19,6.56,6.56,0,0,1,3.92-1v3.09a8.28,8.28,0,0,0-3,.48,4.72,4.72,0,0,0-2,1.41,5.82,5.82,0,0,0-1.1,2.25,12.13,12.13,0,0,0-.34,3v7.9h-2.92V141.78Z" transform="translate(-11.5 -11.03)"/><path class="cls-1" d="M429.45,135v14.53l8.11-7.76h3.92l-7,6.46,7.56,11.3h-3.71l-6.08-9.28-2.75,2.54v6.73h-2.92V135Z" transform="translate(-11.5 -11.03)"/><path class="cls-1" d="M463.63,158.41a8.06,8.06,0,0,1-5,1.51,9.12,9.12,0,0,1-3.69-.69,7.28,7.28,0,0,1-2.63-1.92,8.16,8.16,0,0,1-1.6-3,14.17,14.17,0,0,1-.6-3.74,10.69,10.69,0,0,1,.62-3.71,8.87,8.87,0,0,1,1.73-2.92,7.86,7.86,0,0,1,2.65-1.92,8.08,8.08,0,0,1,3.35-.69,7.29,7.29,0,0,1,3.93,1,7.78,7.78,0,0,1,2.51,2.49,9.86,9.86,0,0,1,1.31,3.3,14.23,14.23,0,0,1,.29,3.4h-13.3a7,7,0,0,0,.27,2.22,5,5,0,0,0,1,1.86,4.92,4.92,0,0,0,1.75,1.29,6,6,0,0,0,2.51.48,5.05,5.05,0,0,0,3-.86,4.16,4.16,0,0,0,1.56-2.61h2.88A7.1,7.1,0,0,1,463.63,158.41ZM462.93,147a5,5,0,0,0-1.06-1.6,5.07,5.07,0,0,0-1.58-1.06,5,5,0,0,0-2-.39,5.09,5.09,0,0,0-2,.39,4.73,4.73,0,0,0-1.56,1.08,5.19,5.19,0,0,0-1,1.6,6.08,6.08,0,0,0-.45,1.94h10.2A6,6,0,0,0,462.93,147Z" transform="translate(-11.5 -11.03)"/><path class="cls-1" d="M484,141.78v2.58h-3.54v11a3.15,3.15,0,0,0,.09.82.84.84,0,0,0,.33.48,1.43,1.43,0,0,0,.67.22,9.63,9.63,0,0,0,1.12.05H484v2.58h-2.23a10.49,10.49,0,0,1-1.94-.15,2.84,2.84,0,0,1-1.31-.57,2.42,2.42,0,0,1-.74-1.17,6.77,6.77,0,0,1-.24-2v-11.3h-3v-2.58h3v-5.33h2.92v5.33Z" transform="translate(-11.5 -11.03)"/><path class="cls-1" d="M497.09,141.78v2.4h.07a4.38,4.38,0,0,1,2.27-2.15,8.47,8.47,0,0,1,3.4-.67,8,8,0,0,1,3.59.76,7.3,7.3,0,0,1,2.54,2,9.05,9.05,0,0,1,1.53,3,12.13,12.13,0,0,1,.52,3.57,12.57,12.57,0,0,1-.5,3.57,8.42,8.42,0,0,1-1.51,2.94,7.14,7.14,0,0,1-2.54,2,8.25,8.25,0,0,1-3.56.72,8.8,8.8,0,0,1-1.46-.14,8.12,8.12,0,0,1-1.6-.45,6.2,6.2,0,0,1-1.49-.84,4.67,4.67,0,0,1-1.19-1.32h-.07v9.14h-2.92V141.78Zm10.5,6.3a6.53,6.53,0,0,0-1-2.11,4.89,4.89,0,0,0-1.72-1.48,5.23,5.23,0,0,0-2.46-.55,4.82,4.82,0,0,0-4.19,2.11,6.39,6.39,0,0,0-.95,2.15,10.4,10.4,0,0,0,0,5,6.27,6.27,0,0,0,1,2.15,5,5,0,0,0,1.73,1.49,5.42,5.42,0,0,0,2.58.57,5,5,0,0,0,2.53-.58,4.69,4.69,0,0,0,1.63-1.55,6.75,6.75,0,0,0,.89-2.2,11.7,11.7,0,0,0,.27-2.54A9.08,9.08,0,0,0,507.59,148.08Z" transform="translate(-11.5 -11.03)"/><path class="cls-1" d="M524.41,135v24.53h-2.92V135Z" transform="translate(-11.5 -11.03)"/><path class="cls-1" d="M551.55,159.47a4.14,4.14,0,0,1-2.1.45,2.51,2.51,0,0,1-1.8-.64,2.76,2.76,0,0,1-.67-2.08,7,7,0,0,1-2.8,2.08,9.67,9.67,0,0,1-5.74.36,5.3,5.3,0,0,1-1.87-.86,4.12,4.12,0,0,1-1.25-1.53,5.15,5.15,0,0,1-.46-2.29,5.21,5.21,0,0,1,.52-2.47,4.5,4.5,0,0,1,1.36-1.56,6.23,6.23,0,0,1,1.92-.91q1.08-.31,2.22-.52t2.29-.36a12.67,12.67,0,0,0,1.91-.34,3.17,3.17,0,0,0,1.31-.65,1.59,1.59,0,0,0,.48-1.25,2.91,2.91,0,0,0-.36-1.55,2.46,2.46,0,0,0-.93-.89,3.77,3.77,0,0,0-1.27-.41,9.58,9.58,0,0,0-1.39-.1,6.17,6.17,0,0,0-3.09.7,3,3,0,0,0-1.34,2.66h-2.92a6.33,6.33,0,0,1,.69-2.78,5.22,5.22,0,0,1,1.65-1.84,6.94,6.94,0,0,1,2.35-1,12.43,12.43,0,0,1,2.84-.31,16.59,16.59,0,0,1,2.39.17,6.24,6.24,0,0,1,2.15.7,4.11,4.11,0,0,1,1.55,1.49,4.77,4.77,0,0,1,.58,2.5v9.12a6.82,6.82,0,0,0,.12,1.51c.08.32.35.48.81.48a3.55,3.55,0,0,0,.89-.14Zm-4.74-9.1a3.65,3.65,0,0,1-1.44.6q-.89.19-1.87.31t-2,.27a7.31,7.31,0,0,0-1.79.5,3.23,3.23,0,0,0-1.29,1,2.72,2.72,0,0,0-.5,1.73,2.36,2.36,0,0,0,.29,1.21,2.43,2.43,0,0,0,.75.8,3.2,3.2,0,0,0,1.08.44,6,6,0,0,0,1.31.14,7,7,0,0,0,2.47-.39,5.2,5.2,0,0,0,1.68-1,3.91,3.91,0,0,0,1-1.3,3.27,3.27,0,0,0,.31-1.32Z" transform="translate(-11.5 -11.03)"/><path class="cls-1" d="M571.75,144.87a4.43,4.43,0,0,0-3-.93,5.44,5.44,0,0,0-2.65.58,4.72,4.72,0,0,0-1.7,1.55,6.5,6.5,0,0,0-.91,2.22,12.1,12.1,0,0,0-.27,2.59,9.88,9.88,0,0,0,.29,2.4,6.44,6.44,0,0,0,.91,2.08,4.6,4.6,0,0,0,1.61,1.46,4.84,4.84,0,0,0,2.37.55,4.78,4.78,0,0,0,3.38-1.13,5.12,5.12,0,0,0,1.49-3.19h3a8.18,8.18,0,0,1-2.46,5.09,7.72,7.72,0,0,1-5.38,1.79,9.25,9.25,0,0,1-3.59-.65,7,7,0,0,1-2.61-1.85,8,8,0,0,1-1.58-2.87,12,12,0,0,1-.53-3.66,13,13,0,0,1,.52-3.73,8.61,8.61,0,0,1,1.56-3,7.34,7.34,0,0,1,2.63-2,8.6,8.6,0,0,1,3.68-.74,10.74,10.74,0,0,1,2.83.36,6.93,6.93,0,0,1,2.34,1.12,6.1,6.1,0,0,1,1.67,1.91,7,7,0,0,1,.82,2.73h-3A4.46,4.46,0,0,0,571.75,144.87Z" transform="translate(-11.5 -11.03)"/><path class="cls-1" d="M599,158.41a8.06,8.06,0,0,1-5,1.51,9.12,9.12,0,0,1-3.69-.69,7.28,7.28,0,0,1-2.63-1.92,8.16,8.16,0,0,1-1.6-3,14.17,14.17,0,0,1-.6-3.74,10.69,10.69,0,0,1,.62-3.71,8.87,8.87,0,0,1,1.73-2.92,7.86,7.86,0,0,1,2.65-1.92,8.08,8.08,0,0,1,3.35-.69,7.29,7.29,0,0,1,3.93,1,7.78,7.78,0,0,1,2.51,2.49,9.86,9.86,0,0,1,1.31,3.3,14.23,14.23,0,0,1,.29,3.4h-13.3a7,7,0,0,0,.27,2.22,5,5,0,0,0,1,1.86,4.92,4.92,0,0,0,1.75,1.29,6,6,0,0,0,2.51.48,5.05,5.05,0,0,0,3-.86,4.16,4.16,0,0,0,1.56-2.61h2.88A7.1,7.1,0,0,1,599,158.41ZM598.32,147a5,5,0,0,0-1.06-1.6,5.07,5.07,0,0,0-1.58-1.06,5,5,0,0,0-2-.39,5.09,5.09,0,0,0-2,.39,4.73,4.73,0,0,0-1.56,1.08,5.19,5.19,0,0,0-1,1.6,6.08,6.08,0,0,0-.45,1.94h10.2A6,6,0,0,0,598.32,147Z" transform="translate(-11.5 -11.03)"/><path class="cls-2" d="M91.24,60.14A33.8,33.8,0,0,1,111,40,42.2,42.2,0,0,1,126.7,37.2,42.78,42.78,0,0,1,142.49,40a33.67,33.67,0,0,1,19.8,20.16A45.41,45.41,0,0,1,165,76.23a44.81,44.81,0,0,1-2.72,16,34.73,34.73,0,0,1-7.72,12.22,33.63,33.63,0,0,1-12.08,7.79A43.82,43.82,0,0,1,126.7,115,43.23,43.23,0,0,1,111,112.26a33.73,33.73,0,0,1-12-7.79,34.67,34.67,0,0,1-7.72-12.22,44.77,44.77,0,0,1-2.72-16A45.37,45.37,0,0,1,91.24,60.14Zm18.44,24.73a23,23,0,0,0,2.93,7.58,15.59,15.59,0,0,0,5.5,5.36,16.78,16.78,0,0,0,8.58,2,17.19,17.19,0,0,0,8.65-2,15.43,15.43,0,0,0,5.58-5.36,23.05,23.05,0,0,0,2.93-7.58,43.26,43.26,0,0,0,.86-8.65,44.36,44.36,0,0,0-.86-8.72,22.29,22.29,0,0,0-2.93-7.58,16.28,16.28,0,0,0-5.58-5.36,16.74,16.74,0,0,0-8.65-2.07,15.62,15.62,0,0,0-14.08,7.43,22.26,22.26,0,0,0-2.93,7.58,44.36,44.36,0,0,0-.86,8.72A43.26,43.26,0,0,0,109.68,84.88Z" transform="translate(-11.5 -11.03)"/><path class="cls-2" d="M188.05,11V48.21h.29a21.67,21.67,0,0,1,10.08-8.36,34.13,34.13,0,0,1,13.22-2.64,28.19,28.19,0,0,1,20.8,9.29,35.84,35.84,0,0,1,7.08,12.08,50.7,50.7,0,0,1,2.72,17.51,50.68,50.68,0,0,1-2.72,17.51,35.82,35.82,0,0,1-7.08,12.08,28.2,28.2,0,0,1-20.8,9.29,39,39,0,0,1-14.58-2.57,18.5,18.5,0,0,1-9.72-8.72h-.29v9.44h-19.3V11Zm32.88,56.19a23.58,23.58,0,0,0-3.15-7.58,16.48,16.48,0,0,0-5.36-5.22,16.55,16.55,0,0,0-15.51,0,16.23,16.23,0,0,0-5.43,5.22,23.5,23.5,0,0,0-3.15,7.58,39.48,39.48,0,0,0-1,9,38.82,38.82,0,0,0,1,8.86,23.48,23.48,0,0,0,3.15,7.58,16.2,16.2,0,0,0,5.43,5.22,16.55,16.55,0,0,0,15.51,0,16.46,16.46,0,0,0,5.36-5.22,23.56,23.56,0,0,0,3.15-7.58,39,39,0,0,0,1-8.86A39.65,39.65,0,0,0,220.94,67.22Z" transform="translate(-11.5 -11.03)"/><path class="cls-2" d="M74.84,14.89,57.56,81.61q-.68,2.63-1.62,5.41A16.8,16.8,0,0,1,53.33,92,9,9,0,0,1,48.92,95a12.61,12.61,0,0,1-7-.2,14.22,14.22,0,0,1-6-2.88A10,10,0,0,1,33,87.57a14.55,14.55,0,0,1-.59-5.69,38.4,38.4,0,0,1,1.17-6.79l.9-3.48,9.6,2.49L22.37,37.27,15,65.57h0l-2.22,8.58A32.84,32.84,0,0,0,12,88.78a27.6,27.6,0,0,0,4.9,11.31,31.11,31.11,0,0,0,9,8.09A43.4,43.4,0,0,0,37.46,113q11.07,2.87,18.46,1.16A26.89,26.89,0,0,0,75.31,98.61,67.49,67.49,0,0,0,79,88.2L96.57,20.52ZM81,37.71c-3-.79-4.7-4.52-3.72-8.34,1.79-6.92,1.79-6.92,7.3-5.49s5.51,1.43,3.72,8.34C87.33,36,84.07,38.5,81,37.71Z" transform="translate(-11.5 -11.03)"/><path class="cls-3" d="M300.39,63.48a24.33,24.33,0,0,0-7.68-12.63q-5.44-4.54-13.82-4.54a21.75,21.75,0,0,0-11,2.65,22.32,22.32,0,0,0-7.54,7A31.73,31.73,0,0,0,256,65.93,45,45,0,0,0,254.6,77a46.93,46.93,0,0,0,1.33,11.17A29.82,29.82,0,0,0,260.19,98a21.92,21.92,0,0,0,7.54,6.91,22.5,22.5,0,0,0,11.17,2.58q9.35,0,15-5.16t7.19-14.24H310a42.14,42.14,0,0,1-3.56,11,28.9,28.9,0,0,1-6.28,8.52A27,27,0,0,1,291,113a39.16,39.16,0,0,1-27.08-1,28.14,28.14,0,0,1-10.33-8,33.75,33.75,0,0,1-6-12.07,55.12,55.12,0,0,1-2-14.94,48,48,0,0,1,2.16-14.45,37.66,37.66,0,0,1,6.35-12.21,30.73,30.73,0,0,1,10.4-8.45,31.29,31.29,0,0,1,14.31-3.14q12.56,0,20.31,6t9.7,18.71Z" transform="translate(-11.5 -11.03)"/><path class="cls-3" d="M351.76,70.88q2.37-.28,5.65-.84a21.25,21.25,0,0,0,5.37-1.54,4.44,4.44,0,0,0,2.58-3.28,20.63,20.63,0,0,0,.49-4.26,14.28,14.28,0,0,0-4.12-10.54q-4.12-4.12-13.89-4.12a38.58,38.58,0,0,0-8,.77,17.34,17.34,0,0,0-6.35,2.65,14.63,14.63,0,0,0-4.47,5,21.28,21.28,0,0,0-2.3,7.89h-8.51a25.87,25.87,0,0,1,2.93-11,22.25,22.25,0,0,1,6.49-7.4,27,27,0,0,1,9.21-4.19A45.08,45.08,0,0,1,348,38.78,42.83,42.83,0,0,1,358.25,40a23.8,23.8,0,0,1,8.38,3.77,17.53,17.53,0,0,1,5.58,6.91,25,25,0,0,1,2,10.61v39.37q0,4.89,1.74,6.21t7.05-.63v6.56l-2.86.84a13,13,0,0,1-3.7.56,16.72,16.72,0,0,1-3.77-.42,6.47,6.47,0,0,1-3.35-1.33,8.17,8.17,0,0,1-2-2.51,10.37,10.37,0,0,1-1-3.21A23.26,23.26,0,0,1,366,103a36.39,36.39,0,0,1-12.15,8.93,35.73,35.73,0,0,1-14.8,3.07,33.14,33.14,0,0,1-9.14-1.26,22.11,22.11,0,0,1-7.75-3.91,19.37,19.37,0,0,1-5.3-6.49,19.91,19.91,0,0,1-2-9.14q0-18.43,25.27-21.78Zm14.1,4.19A41,41,0,0,1,355.11,78q-5.44.7-10.89,1.12-9.63.7-15,4.33t-5.37,11a12,12,0,0,0,1.33,5.79,12.19,12.19,0,0,0,3.49,4,14.71,14.71,0,0,0,5,2.37,22.24,22.24,0,0,0,5.79.77,38,38,0,0,0,9.77-1.26,26.42,26.42,0,0,0,8.45-3.84,19.61,19.61,0,0,0,5.93-6.56,19,19,0,0,0,2.23-9.42Z" transform="translate(-11.5 -11.03)"/><path class="cls-3" d="M413.32,113.32q-1.54.28-4,1a20.88,20.88,0,0,1-5.58.7q-6.28,0-9.56-3.14t-3.28-11.24V47.71H380.66v-7h10.19V20.63h8.38v20.1h13.54v7H399.22V97.27q0,2.65.14,4.61a7.68,7.68,0,0,0,.84,3.21,4,4,0,0,0,2.16,1.81,12,12,0,0,0,4.12.56,21.43,21.43,0,0,0,3.42-.28q1.74-.28,3.42-.7Z" transform="translate(-11.5 -11.03)"/><path class="cls-3" d="M469.72,63.48A24.33,24.33,0,0,0,462,50.85q-5.44-4.54-13.82-4.54a21.76,21.76,0,0,0-11,2.65,22.33,22.33,0,0,0-7.54,7,31.73,31.73,0,0,0-4.33,9.91,45.08,45.08,0,0,0-1.4,11.1,46.93,46.93,0,0,0,1.33,11.17A29.84,29.84,0,0,0,429.52,98a21.92,21.92,0,0,0,7.54,6.91,22.5,22.5,0,0,0,11.17,2.58q9.35,0,15-5.16t7.19-14.24h8.93a42.14,42.14,0,0,1-3.56,11,28.9,28.9,0,0,1-6.28,8.52,27,27,0,0,1-9.14,5.51,39.16,39.16,0,0,1-27.08-1A28.13,28.13,0,0,1,423,104,33.76,33.76,0,0,1,417,92,55.15,55.15,0,0,1,415,77a48,48,0,0,1,2.16-14.45,37.69,37.69,0,0,1,6.35-12.21,30.74,30.74,0,0,1,10.4-8.45,31.29,31.29,0,0,1,14.31-3.14q12.56,0,20.31,6t9.7,18.71Z" transform="translate(-11.5 -11.03)"/><path class="cls-3" d="M487.87,113V12.53h8.38V50.78a53.25,53.25,0,0,1,10.4-8.65,23.92,23.92,0,0,1,12.91-3.35A33,33,0,0,1,532,41.08a21.21,21.21,0,0,1,9.63,8,18.06,18.06,0,0,1,3.14,8,73,73,0,0,1,.49,8.59V113h-8.38V65.86q0-9.77-4.33-14.66t-14.38-4.89A20.45,20.45,0,0,0,511,47.5a22.41,22.41,0,0,0-5.79,3.14,21,21,0,0,0-4.4,4.47,20.68,20.68,0,0,0-2.79,5.3,26.63,26.63,0,0,0-1.54,6.7q-.28,3.21-.28,7V113Z" transform="translate(-11.5 -11.03)"/><path class="cls-3" d="M562.41,78.84a39.19,39.19,0,0,0,1.53,11.1A26.77,26.77,0,0,0,568.48,99a22,22,0,0,0,7.61,6.14,23.42,23.42,0,0,0,10.61,2.3,23.07,23.07,0,0,0,14.1-4.33,20.84,20.84,0,0,0,7.82-12.28H618a45.23,45.23,0,0,1-4,9.56,29.49,29.49,0,0,1-6.28,7.68,27.12,27.12,0,0,1-8.93,5.1,36.23,36.23,0,0,1-12,1.81,35,35,0,0,1-14.94-2.93,28.15,28.15,0,0,1-10.33-8,33.85,33.85,0,0,1-6-12,54.39,54.39,0,0,1-2-14.87,47.41,47.41,0,0,1,2.3-14.94A38,38,0,0,1,562.34,50a30.48,30.48,0,0,1,10.4-8.24,31.4,31.4,0,0,1,14-3q14.93,0,23.45,10.26t8.38,29.8Zm47.18-7a33.2,33.2,0,0,0-1.47-10,23.37,23.37,0,0,0-4.33-8.1,20.64,20.64,0,0,0-7.19-5.44,23.17,23.17,0,0,0-9.91-2,22,22,0,0,0-9.84,2.09A22.63,22.63,0,0,0,569.6,54a28,28,0,0,0-4.82,8.1,37.44,37.44,0,0,0-2.37,9.77Z" transform="translate(-11.5 -11.03)"/><path class="cls-3" d="M635.42,113H627V40.73h8.38V54.27h.28q3.49-8.65,9-12.07t14.59-3.42v9.07q-7.12-.14-11.72,2.23a19.29,19.29,0,0,0-7.33,6.42,25.43,25.43,0,0,0-3.77,9.56,61.63,61.63,0,0,0-1,11.52Z" transform="translate(-11.5 -11.03)"/></svg>